<svg width="29" height="29" viewBox="0 0 29 29" fill="none" xmlns="http://www.w3.org/2000/svg">
<path fill-rule="evenodd" clip-rule="evenodd" d="M13.6733 1.55667C13.9827 1.55667 14.2794 1.67959 14.4982 1.89838C14.717 2.11717 14.8399 2.41392 14.8399 2.72334V5.05667C17.3153 5.05667 19.6893 6.04 21.4396 7.79034C23.1899 9.54068 24.1733 11.9146 24.1733 14.39C24.1733 16.8654 23.1899 19.2393 21.4396 20.9897C19.6893 22.74 17.3153 23.7233 14.8399 23.7233V26.0567C14.8399 26.3661 14.717 26.6628 14.4982 26.8816C14.2794 27.1004 13.9827 27.2233 13.6733 27.2233C13.3639 27.2233 13.0671 27.1004 12.8483 26.8816C12.6295 26.6628 12.5066 26.3661 12.5066 26.0567V23.7233H8.53995C7.88661 23.7233 7.55995 23.7233 7.31495 23.6067C7.09179 23.4915 6.91176 23.3074 6.80161 23.0817C6.67328 22.8367 6.67328 22.51 6.67328 21.8567V6.92334C6.67328 6.27 6.67328 5.94334 6.78995 5.69834C6.90514 5.47518 7.08926 5.29515 7.31495 5.185C7.55995 5.05667 7.88661 5.05667 8.53995 5.05667H12.5066V2.72334C12.5066 2.41392 12.6295 2.11717 12.8483 1.89838C13.0671 1.67959 13.3639 1.55667 13.6733 1.55667ZM14.8399 21.39C16.6965 21.39 18.4769 20.6525 19.7897 19.3398C21.1024 18.027 21.8399 16.2465 21.8399 14.39C21.8399 12.5335 21.1024 10.753 19.7897 9.44026C18.4769 8.1275 16.6965 7.39 14.8399 7.39H9.00661V21.39H14.8399Z" fill="black"/>
</svg>
