<svg width="250" height="42" viewBox="0 0 250 42" fill="none" xmlns="http://www.w3.org/2000/svg">
<mask id="mask0_3_2508" style="mask-type:luminance" maskUnits="userSpaceOnUse" x="0" y="0" width="42" height="42">
<path d="M0 0H42V42H0V0Z" fill="white"/>
</mask>
<g mask="url(#mask0_3_2508)">
<path d="M18.77 -6.66862e-06C30.976 -6.66862e-06 40.36 8.39999 40.36 20.868C40.36 33.338 30.976 42 18.77 42H5.05298C4.38058 42.0334 3.70866 41.9255 3.08049 41.6834C2.45232 41.4412 1.88183 41.0702 1.4058 40.5942C0.929757 40.1181 0.55872 39.5477 0.31659 38.9195C0.0744587 38.2913 -0.0333954 37.6194 -2.41264e-05 36.947V5.24999C-0.0371795 4.56738 0.0666065 3.88442 0.30487 3.24366C0.543134 2.60289 0.910773 2.01805 1.38489 1.52554C1.85901 1.03304 2.42945 0.643427 3.06069 0.380968C3.69192 0.118508 4.37044 -0.0111754 5.05398 -6.66862e-06H18.77Z" fill="#FF6900"/>
<path d="M32.813 16.34C32.747 16.866 32.156 16.866 31.893 16.406C31.041 14.963 29.925 14.7 28.153 14.569C26.841 14.503 25.266 14.634 23.822 14.634C23.7636 14.6404 23.7046 14.6295 23.6523 14.6026C23.6001 14.5758 23.5568 14.5342 23.528 14.483C23.5095 14.4486 23.498 14.4109 23.494 14.372C23.756 13.125 24.806 10.828 25.922 10.632C26.447 10.566 27.628 10.435 28.284 10.435C31.304 10.435 32.944 13.912 32.813 16.34ZM15.75 28.22C17.974 28.811 20.28 29.033 22.575 28.876C25.5816 28.6724 28.4907 27.7254 31.041 26.12C30.056 28.614 26.316 30.189 22.771 30.582C22.771 30.779 22.706 30.911 22.706 31.107C24.966 31.017 27.171 30.387 29.138 29.27C28.481 31.698 25.2 32.682 22.181 32.88C22.1066 33.0608 22.019 33.236 21.919 33.404C23.405 33.425 24.887 33.226 26.316 32.814C24.938 35.373 19.031 37.144 14.044 34.782C15.0823 32.7445 15.6645 30.5052 15.75 28.22ZM32.222 10.764C31.6703 10.2423 31.021 9.83465 30.3115 9.56438C29.6019 9.29411 28.846 9.16654 28.087 9.189C26.119 9.189 24.478 9.714 22.05 9.779C20.41 9.845 18.9 6.235 16.931 5.776C16.078 3.873 14.109 3.61 12.928 4.595C11.812 3.939 10.106 4.267 10.041 5.514C8.794 5.12 7.153 5.776 7.875 7.482C4.791 7.548 4.265 10.304 6.3 10.567C3.61 12.077 4.856 14.701 7.088 14.177C7.481 18.114 9.253 23.232 6.366 24.479C6.038 24.61 4.725 24.939 2.231 24.348L0 23.757V25.791C2.166 26.316 4.331 26.709 5.71 26.578C9.516 26.185 9.713 23.035 9.516 20.278C9.319 17.521 8.4 14.438 8.728 12.206L8.597 12.076C7.219 13.519 6.3 13.126 6.169 12.666C5.972 11.747 7.613 10.566 8.531 10.172C8.531 10.106 8.597 10.041 8.597 9.975C7.744 10.106 6.694 9.975 6.628 9.385C6.562 8.663 8.072 7.941 10.041 8.138C10.106 8.138 10.106 8.072 10.171 8.072L9.778 7.875C9.253 7.613 9.122 7.153 9.318 6.891C9.4649 6.7267 9.64852 6.5994 9.85392 6.51947C10.0593 6.43953 10.2807 6.40922 10.5 6.431C11.1116 6.43774 11.7151 6.57193 12.272 6.825C12.338 6.825 12.338 6.759 12.403 6.759C12.272 6.629 12.075 6.497 12.009 6.366C11.9383 6.26717 11.906 6.14597 11.9181 6.02506C11.9303 5.90414 11.986 5.79179 12.075 5.709C12.3321 5.5827 12.6223 5.54014 12.9048 5.58731C13.1873 5.63449 13.4479 5.76902 13.65 5.972L13.978 6.3C14.0137 6.30446 14.0499 6.30085 14.084 6.28942C14.1181 6.278 14.1492 6.25906 14.175 6.234C14.0551 6.11043 13.985 5.94702 13.978 5.775C13.9576 5.72346 13.9484 5.66821 13.9508 5.61285C13.9532 5.55749 13.9673 5.50326 13.9922 5.45371C14.017 5.40417 14.052 5.36041 14.0948 5.32531C14.1377 5.29021 14.1875 5.26455 14.241 5.25C14.3898 5.22491 14.5426 5.24238 14.6818 5.30042C14.8211 5.35846 14.9411 5.45469 15.028 5.578C15.201 5.842 15.333 6.129 15.422 6.431C14.6485 6.46637 13.8914 6.66616 13.2012 7.01706C12.5109 7.36795 11.9034 7.8619 11.419 8.466C10.8914 9.24591 10.5466 10.1348 10.4101 11.0665C10.2737 11.9981 10.3492 12.9486 10.631 13.847C11.1062 15.8634 11.7426 17.8384 12.534 19.753V19.819C14.109 24.347 17.128 35.503 2.494 41.409C3.25289 41.7742 4.08016 41.9756 4.922 42H6.432C8.97392 40.7169 11.1942 38.8777 12.928 36.619C19.622 39.572 25.725 38.063 28.35 33.206C29.1661 32.6914 29.8554 31.9993 30.3667 31.1811C30.8781 30.363 31.1981 29.44 31.303 28.481C31.7859 27.8947 32.1262 27.2044 32.2971 26.4643C32.468 25.7243 32.4649 24.9547 32.288 24.216C32.222 23.953 31.959 23.953 31.566 24.15C26.119 27.431 21.328 27.956 15.619 26.25C15.4674 24.4636 15.2042 22.6885 14.831 20.935C14.7 18.638 15.421 17.522 19.621 18.9C22.378 19.622 23.625 20.869 24.609 21.525C25.069 21.853 25.659 22.247 25.987 21.985C26.184 21.853 26.25 21.459 26.25 21C26.1347 19.5573 25.7332 18.1519 25.069 16.866C26.3147 16.7974 27.5633 16.7974 28.809 16.866C29.235 16.8862 29.6448 17.035 29.9845 17.2928C30.3242 17.5505 30.5779 17.9052 30.712 18.31C31.172 19.622 33.732 19.294 33.928 18.178C34.322 15.881 34.453 12.863 32.222 10.763M3.084 30.45C2.05706 30.3839 1.02694 30.3839 0 30.45L0 31.828C1.772 31.435 2.888 31.238 2.888 31.238L3.084 30.45Z" fill="black"/>
<path d="M19.491 16.078C17.194 15.553 14.635 14.896 13.322 12.928C13.322 12.862 13.257 12.862 13.192 12.862C13.1833 12.862 13.1748 12.8637 13.1667 12.867C13.1587 12.8703 13.1515 12.8752 13.1453 12.8813C13.1392 12.8874 13.1343 12.8947 13.131 12.9027C13.1277 12.9107 13.126 12.9193 13.126 12.928C13.1162 13.0413 13.1387 13.155 13.191 13.256L12.994 13.321C12.8137 13.1011 12.7098 12.8285 12.6981 12.5444C12.6864 12.2602 12.7674 11.98 12.929 11.746C13.2088 11.4631 13.5795 11.2883 13.9757 11.2525C14.3719 11.2166 14.768 11.322 15.094 11.55L15.029 11.746C14.7234 11.6665 14.4001 11.6897 14.109 11.812C14.0628 11.8348 14.0222 11.8674 13.9899 11.9075C13.9576 11.9476 13.9345 11.9943 13.9221 12.0443C13.9097 12.0943 13.9084 12.1464 13.9182 12.1969C13.9281 12.2475 13.9488 12.2953 13.979 12.337C15.094 14.437 18.376 14.897 22.247 14.568C22.3686 14.5849 22.492 14.5531 22.5903 14.4795C22.6886 14.4059 22.7539 14.2965 22.772 14.175C23.0614 12.8714 23.6962 11.6697 24.61 10.696C23.981 10.799 23.344 10.843 22.707 10.828C20.738 10.958 19.557 10.696 19.229 10.434L19.294 10.237C19.491 10.303 19.754 10.303 19.754 10.237C19.754 10.171 19.754 10.106 19.688 10.04C19.294 9.71198 17.588 7.93998 17.588 7.93998C17.391 6.42998 15.226 6.42998 14.372 7.87498L14.11 7.80898C14.167 7.52698 14.278 7.25898 14.438 7.02098C13.6358 7.2378 12.918 7.69241 12.3791 8.325C11.8403 8.95759 11.5055 9.7385 11.419 10.565C10.632 17.259 20.804 15.684 23.691 18.375C23.757 18.44 23.888 18.637 23.954 18.505C24.019 18.375 22.772 16.8 19.491 16.078ZM15.947 8.06998C16.407 7.93998 17.129 8.39898 17.457 9.11998C17.785 9.84098 17.719 10.564 17.26 10.761C16.8 10.958 16.079 10.433 15.75 9.71098C15.685 9.57998 15.685 9.51398 15.62 9.38298H15.685C15.7401 9.44791 15.8132 9.49502 15.8951 9.51834C15.977 9.54166 16.064 9.54015 16.145 9.51398C16.341 9.38298 16.275 9.11998 16.145 8.85798C16.013 8.59498 15.816 8.46398 15.619 8.46398L15.554 8.39898C15.649 8.25234 15.7859 8.1377 15.947 8.06998ZM31.041 26.118C28.491 27.7232 25.5823 28.6702 22.576 28.874C20.281 28.994 17.981 28.774 15.751 28.218C15.7503 28.8807 15.6847 29.537 15.554 30.187C17.469 30.6374 19.427 30.8794 21.394 30.909C20.9715 32.8152 19.9891 34.5518 18.573 35.896C22.116 36.028 25.332 34.649 26.316 32.812C24.8933 33.2516 23.4073 33.451 21.919 33.402C21.985 33.206 22.116 33.074 22.182 32.877C25.201 32.747 28.482 31.762 29.138 29.268C27.1713 30.384 24.9664 31.0141 22.707 31.106C22.707 30.909 22.773 30.777 22.773 30.581C26.316 30.121 30.057 28.611 31.041 26.118Z" fill="white"/>
</g>
<mask id="mask1_3_2508" style="mask-type:luminance" maskUnits="userSpaceOnUse" x="49" y="0" width="201" height="42">
<path d="M49 0H250V42H49V0Z" fill="white"/>
</mask>
<g mask="url(#mask1_3_2508)">
<path d="M240.469 22.968C239.549 22.968 238.628 22.838 237.774 22.64L240.403 16.8L243.032 22.64C242.178 22.837 241.323 22.968 240.469 22.968ZM249.737 27.431L243.624 14.043C242.901 12.6 241.981 11.943 240.6 11.943H240.337C238.891 11.943 237.971 12.6 237.248 14.043L231.135 27.431C230.544 28.743 230.938 29.925 232.187 30.384C233.239 30.844 234.422 30.45 234.948 29.4L235.013 29.268L236.394 26.381C237.774 26.841 239.154 27.037 240.6 27.037C241.981 27.037 243.361 26.84 244.61 26.381L245.924 29.268C246.319 30.318 247.502 30.843 248.619 30.45H248.685L248.817 30.384C249.868 29.924 250.394 28.678 249.934 27.628C249.802 27.562 249.802 27.497 249.737 27.431ZM227.652 26.184H226.469V13.978C226.534 12.797 225.548 11.812 224.365 11.746H224.168C222.985 11.681 221.999 12.6 221.933 13.781V26.25H214.111V13.978C214.095 13.6756 214.02 13.3794 213.889 13.1064C213.757 12.8334 213.574 12.5891 213.348 12.3877C213.121 12.1863 212.858 12.0317 212.571 11.9328C212.285 11.834 211.982 11.793 211.68 11.812C211.114 11.8387 210.578 12.0753 210.177 12.4758C209.775 12.8763 209.538 13.4118 209.51 13.978V28.415C209.445 29.596 210.299 30.581 211.482 30.647H225.285V32.615C225.22 33.796 226.074 34.781 227.257 34.846H227.455C228.572 34.912 229.624 34.059 229.689 32.943V28.547C229.821 27.431 228.966 26.447 227.915 26.315H227.52M204.909 26.184H203.726V13.978C203.792 12.797 202.806 11.812 201.623 11.746H201.491C200.308 11.746 199.388 12.666 199.322 13.846V26.25H191.501V13.978C191.485 13.6755 191.41 13.3792 191.278 13.1061C191.147 12.8331 190.963 12.5888 190.737 12.3873C190.511 12.1859 190.247 12.0313 189.961 11.9325C189.674 11.8338 189.371 11.7928 189.069 11.812C188.503 11.8389 187.967 12.0757 187.566 12.4761C187.165 12.8766 186.928 13.412 186.9 13.978V28.415C186.834 29.596 187.688 30.581 188.871 30.647H202.675V32.615C202.609 33.796 203.463 34.781 204.646 34.846H204.844C205.961 34.978 207.013 34.125 207.144 33.009V28.481C207.276 27.365 206.421 26.381 205.369 26.25H204.975M179.801 11.943H179.604C178.289 11.943 177.369 12.6 176.449 13.913L169.087 24.346V14.11C169.082 13.5367 168.851 12.9885 168.445 12.5834C168.04 12.1783 167.491 11.9487 166.918 11.944C166.345 11.9487 165.796 12.1783 165.391 12.5834C164.985 12.9885 164.754 13.5367 164.749 14.11V28.023C164.683 29.335 165.603 30.451 166.918 30.516H167.509C168.89 30.516 169.876 29.794 170.73 28.548L178.092 18.113V28.285C178.092 29.466 179.078 30.451 180.261 30.451C180.834 30.4463 181.383 30.2167 181.788 29.8116C182.194 29.4065 182.425 28.8583 182.43 28.285V14.437C182.561 13.125 181.576 12.009 180.261 11.943H179.801ZM157.847 11.943H145.227C144.11 11.878 143.058 12.731 142.992 13.847V28.547C142.927 29.727 143.913 30.712 145.096 30.777H145.293C146.476 30.843 147.462 29.925 147.528 28.743V16.275H155.612V28.547C155.547 29.727 156.467 30.712 157.65 30.777H157.913C159.096 30.843 160.148 29.925 160.214 28.743V14.11C160.214 12.929 159.293 11.944 158.176 11.944L157.847 11.943ZM125.18 26.513C122.222 26.513 120.119 24.281 120.119 21.263C120.119 18.44 122.419 16.209 125.18 16.209C127.94 16.209 130.241 18.506 130.241 21.262C130.307 24.281 128.203 26.512 125.18 26.512M125.18 11.812C123.95 11.7778 122.726 11.9869 121.577 12.4273C120.428 12.8677 119.378 13.5307 118.486 14.3783C117.594 15.2258 116.879 16.2412 116.381 17.366C115.882 18.4909 115.611 19.7031 115.583 20.933V21.327C115.452 26.511 119.593 30.777 124.72 30.842H125.114C130.307 30.908 134.645 26.774 134.711 21.589V21.327C134.776 16.208 130.635 11.942 125.508 11.877L125.18 11.812ZM106.841 26.25H99.414C99.94 25.265 100.268 24.215 100.531 23.1C100.794 21.59 100.991 20.015 100.991 18.506L101.057 16.34H106.776L106.841 26.25ZM112.494 26.25H111.311V14.109C111.377 12.928 110.522 11.943 109.339 11.878H98.691C97.442 11.878 96.653 12.665 96.653 14.109V17.062C96.7179 18.9085 96.5859 20.7566 96.259 22.575C96.062 23.887 95.536 25.134 94.813 26.25H94.287C93.17 26.184 92.184 26.971 92.118 28.087V32.615C92.052 33.796 92.907 34.781 94.09 34.846H94.287C95.404 34.912 96.457 34.059 96.522 32.943V30.712H110.128V32.681C110.062 33.862 110.917 34.847 112.1 34.912H112.297C113.414 34.978 114.466 34.125 114.532 33.009V28.612C114.663 27.562 113.94 26.512 112.823 26.381H112.363M82.061 26.512C79.104 26.512 77.001 24.281 77.001 21.262C77.001 18.44 79.301 16.209 82.061 16.209C83.4021 16.2085 84.6886 16.7404 85.6378 17.6879C86.587 18.6353 87.1212 19.9209 87.123 21.262C87.188 24.281 85.216 26.512 82.061 26.512ZM82.061 11.812C80.8311 11.7776 79.6066 11.9865 78.4577 12.4269C77.3089 12.8673 76.2584 13.5304 75.3666 14.3781C74.4749 15.2258 73.7595 16.2414 73.2615 17.3665C72.7635 18.4915 72.4929 19.704 72.465 20.934V21.328C72.4284 22.5557 72.6369 23.7783 73.0783 24.9244C73.5197 26.0706 74.1852 27.1172 75.0359 28.0031C75.8865 28.8891 76.9052 29.5965 78.0325 30.0841C79.1597 30.5717 80.3729 30.8297 81.601 30.843H82.061C87.254 30.909 91.592 26.775 91.658 21.59V21.328C91.724 15.75 87.583 11.812 82.061 11.812ZM63.591 26.25H56.23C56.756 25.2 57.084 24.15 57.347 23.034C57.61 21.524 57.807 19.95 57.807 18.44L57.873 16.275H63.592L63.591 26.25ZM69.244 26.25H68.061V14.109C68.127 12.928 67.272 11.943 66.089 11.878H55.573C54.323 11.878 53.535 12.665 53.535 14.109V17.062C53.5999 18.9085 53.4679 20.7566 53.141 22.575C52.943 23.887 52.418 25.134 51.694 26.25H51.169C50.051 26.184 49.065 26.971 48.999 28.087V32.615C48.934 33.796 49.789 34.781 50.971 34.846H51.169C52.286 34.912 53.338 34.059 53.404 32.943V30.712H67.01V32.681C66.944 33.862 67.798 34.847 68.981 34.912H69.179C70.296 34.978 71.348 34.125 71.413 33.009V28.612C71.545 27.497 70.69 26.512 69.639 26.381C69.507 26.184 69.376 26.184 69.244 26.25Z" fill="black"/>
</g>
</svg>
