<svg width="17" height="17" viewBox="0 0 17 17" fill="none" xmlns="http://www.w3.org/2000/svg">
<path d="M8.75099 1.88003C8.61115 1.80937 8.45667 1.77255 8.29999 1.77255C8.14331 1.77255 7.98883 1.80937 7.84899 1.88003C7.60399 2.00303 7.47099 2.23903 7.38799 2.40803C7.29799 2.59003 7.20299 2.83503 7.09199 3.12003L6.16399 5.51003C6.14246 5.56841 6.11911 5.6261 6.09399 5.68303V5.68503H6.08999C6.05399 5.69103 6.00399 5.69503 5.90599 5.70503L3.40199 5.91903C3.12999 5.94303 2.89199 5.96303 2.70699 5.99603C2.53099 6.02803 2.28899 6.08603 2.10699 6.27003C2.00096 6.37762 1.92069 6.50784 1.87219 6.65089C1.8237 6.79395 1.80824 6.94614 1.82699 7.09603C1.85699 7.35203 2.01299 7.54603 2.13399 7.67903C2.25999 7.81803 2.43599 7.97903 2.63699 8.16403L4.62399 9.98703L4.74899 10.105L4.75099 10.107V10.11C4.74499 10.143 4.73499 10.189 4.71499 10.278L4.12299 12.938C4.06461 13.1793 4.01624 13.4228 3.97799 13.668C3.95399 13.852 3.93599 14.113 4.06499 14.348C4.13953 14.4836 4.24453 14.6001 4.37172 14.6883C4.49892 14.7764 4.64483 14.8338 4.79799 14.856C5.06299 14.894 5.30199 14.784 5.46499 14.696C5.68097 14.5741 5.89181 14.4433 6.09699 14.304L8.13299 12.972C8.21899 12.916 8.26299 12.887 8.29699 12.868L8.29999 12.866L8.30299 12.868C8.33599 12.887 8.38099 12.916 8.46699 12.972L10.503 14.304C10.749 14.465 10.961 14.604 11.135 14.697C11.298 14.784 11.536 14.894 11.802 14.856C11.9551 14.8338 12.1011 14.7764 12.2283 14.6883C12.3554 14.6001 12.4604 14.4836 12.535 14.348C12.665 14.113 12.645 13.852 12.622 13.668C12.5837 13.4228 12.5354 13.1793 12.477 12.938L11.885 10.278C11.865 10.188 11.855 10.143 11.85 10.11V10.107L11.851 10.105L11.976 9.98703L13.963 8.16403C14.164 7.97903 14.34 7.81803 14.466 7.67903C14.586 7.54603 14.742 7.35203 14.774 7.09603C14.7926 6.94606 14.777 6.79383 14.7283 6.65077C14.6797 6.5077 14.5992 6.37753 14.493 6.27003C14.311 6.08703 14.069 6.02803 13.893 5.99603C13.708 5.96303 13.47 5.94303 13.198 5.91903L10.694 5.70403C10.6325 5.69992 10.5711 5.69392 10.51 5.68603H10.507L10.505 5.68303C10.4802 5.62642 10.4572 5.56906 10.436 5.51103L9.50799 3.12103C9.41854 2.87964 9.3198 2.6418 9.21199 2.40803C9.12899 2.23803 8.99599 2.00303 8.75199 1.87903" fill="#FFD200"/>
</svg>
